# Blender v2.79 (sub 0) OBJ File: 'cactus.blend'
# www.blender.org
o Kaktus
v -0.036926 -0.141317 0.149130
v -0.073709 0.068829 0.160420
v -0.071431 -0.138724 0.158078
v 0.029979 -0.244812 0.071026
v 0.062713 -0.244783 0.039340
v 0.095691 -0.233940 0.078402
v 0.146316 -0.157752 0.113656
v 0.114954 -0.160690 0.153494
v -0.064378 0.074804 0.087999
v -0.028586 0.072274 0.120121
v -0.029118 -0.128246 0.114525
v 0.066408 -0.159377 0.029372
v 0.052367 0.444867 0.048459
v 0.017810 0.430141 0.073157
v -0.096733 0.080843 0.121375
v -0.082669 -0.155581 0.094515
v 0.165372 0.146937 0.159595
v 0.142455 0.158149 0.181814
v 0.151529 -0.074403 0.171955
v 0.076370 0.153735 0.117463
v 0.109349 0.155214 0.088575
v 0.094204 -0.049281 0.094494
v -0.081929 -0.222267 0.120784
v -0.097493 -0.127865 0.133657
v -0.065222 -0.302714 0.057447
v -0.060449 0.115534 0.132452
v 0.017493 -0.152003 -0.086892
v 0.046299 -0.228593 -0.072629
v 0.022832 -0.500000 -0.089420
v -0.042746 -0.099441 -0.215101
v -0.010074 -0.054748 -0.205976
v -0.006236 -0.157247 -0.143478
v -0.042027 -0.186537 0.069380
v -0.056718 0.441711 0.059611
v -0.071853 -0.245079 0.047007
v 0.079447 -0.126742 0.162008
v 0.051992 -0.222668 0.109101
v -0.021303 -0.500000 -0.094060
v 0.063028 -0.500000 -0.058126
v -0.064127 -0.500000 0.057149
v -0.093494 -0.500000 -0.003910
v 0.006863 -0.496010 -0.027393
v -0.053609 0.006670 -0.153212
v -0.062709 0.347270 -0.154591
v -0.084401 -0.024090 -0.155334
v -0.024180 0.345208 -0.170710
v -0.021986 0.004929 -0.172110
v -0.024253 0.451460 0.074038
v -0.046112 0.492614 0.018298
v 0.170094 0.146021 0.120440
v 0.136702 0.188658 0.135568
v 0.170162 -0.076411 0.130568
v -0.044533 -0.224642 0.134356
v -0.010358 -0.253043 0.078163
v -0.028706 -0.304250 0.077257
v 0.000268 -0.206450 0.077374
v 0.055380 0.446586 -0.059797
v 0.050467 0.486302 -0.011949
v 0.071722 0.436536 -0.026408
v 0.136378 -0.099192 0.080850
v 0.012307 0.491270 0.042234
v -0.108510 -0.011501 -0.188624
v -0.101506 -0.010847 -0.229617
v -0.090672 -0.099614 -0.200367
v -0.003103 -0.107118 -0.091205
v 0.009399 0.430171 -0.089132
v 0.071543 -0.106549 0.079793
v 0.055515 -0.119185 0.122850
v 0.072066 -0.049944 0.131560
v 0.073860 -0.217835 0.009510
v -0.057495 -0.115147 0.089585
v 0.076031 -0.500000 -0.008560
v 0.065380 -0.478964 0.037611
v 0.036462 -0.500000 0.065826
v -0.025474 0.443732 -0.089434
v -0.082694 0.445658 0.025252
v -0.046177 0.487997 -0.048463
v -0.087973 0.443787 -0.025498
v 0.034277 0.453623 -0.078712
v -0.009773 0.500000 -0.032448
v -0.042685 0.074886 0.153403
v -0.048297 -0.175179 -0.146166
v -0.017570 -0.190272 -0.093675
v -0.085101 -0.240571 0.025035
v -0.013506 0.359806 -0.214280
v -0.010473 -0.500000 0.080543
v -0.037680 -0.091895 -0.085774
v -0.075334 -0.141718 -0.056276
v -0.063972 0.435467 -0.068205
v 0.112569 0.142869 0.185551
v 0.120422 -0.077890 0.183348
v 0.019158 -0.165740 0.072947
v -0.089990 -0.144013 -0.112696
v 0.072565 -0.231164 -0.033581
v -0.030394 -0.047029 -0.134093
v -0.058067 -0.185008 -0.075354
v -0.072429 -0.500000 -0.064691
v -0.109839 0.338820 -0.196998
v -0.035553 -0.012682 -0.244119
v -0.036206 0.345702 -0.247725
v 0.070202 0.433441 0.017616
v -0.090186 -0.225093 -0.021786
v 0.140934 0.148152 0.089835
v -0.102495 0.357204 -0.232806
v -0.070852 -0.018974 -0.249581
v 0.081503 0.154774 0.163717
v -0.064826 0.387340 -0.195851
v -0.067890 0.355463 -0.254449
v -0.093988 0.350044 -0.167338
vt 4.262673 2.577765
vt 4.182641 4.668873
vt 4.001044 2.638994
vt 3.310308 5.301074
vt 3.677738 5.242389
vt 3.716011 5.754254
vt 3.318980 4.306386
vt 3.719890 4.352972
vt 3.437175 5.082266
vt 5.064556 3.693181
vt 4.674587 3.644394
vt 4.726246 2.099661
vt 0.591138 2.112716
vt 0.741634 -3.834790
vt 1.088410 -3.691983
vt 4.446030 -3.948331
vt 4.815267 -3.835736
vt 4.461403 -1.602304
vt 3.534145 1.302081
vt 3.796724 1.204726
vt 3.609620 3.485235
vt -3.803869 7.108214
vt -4.158998 7.154853
vt -4.151805 5.136198
vt 4.266784 -0.981404
vt 4.188404 -1.925212
vt 4.631932 -0.114659
vt 4.783250 4.175412
vt -2.922261 1.372782
vt -2.663509 2.017998
vt -2.865614 3.837583
vt -4.003542 1.286992
vt -3.765993 1.051538
vt -3.379204 1.563664
vt -1.283311 -1.368669
vt -1.236502 4.757776
vt -1.599763 -1.934912
vt 2.305656 4.270520
vt 2.505107 4.030185
vt 2.790537 5.050534
vt -3.307902 5.594119
vt -3.618601 5.351227
vt -3.803869 4.897507
vt -2.453505 4.455719
vt -2.453505 5.125339
vt -3.277607 4.886359
vt 1.700484 2.078074
vt 1.632787 5.425957
vt 1.515993 1.767068
vt 2.248876 1.473938
vt 1.960696 5.412206
vt 1.998331 2.065106
vt -0.965757 4.859318
vt -1.401226 5.309316
vt 3.628587 -1.174998
vt 3.856220 -0.690483
vt 3.486814 -0.914481
vt 3.280354 3.494173
vt 4.204716 1.755223
vt 4.674587 1.393795
vt 4.511130 0.907301
vt 3.091225 5.344564
vt 3.280354 5.049367
vt -2.621477 -3.127881
vt -2.386036 -3.668407
vt -2.336489 -3.130265
vt 3.600971 -3.126596
vt 3.195543 -2.733598
vt 0.445502 -4.224173
vt 0.963401 -4.283295
vt 2.991023 -2.737259
vt 2.728514 -2.717427
vt 2.758846 -3.579522
vt 3.609424 0.907301
vt -3.072946 0.959792
vt -3.054319 -3.074771
vt 4.021627 -3.031321
vt 4.188403 -3.716345
vt -3.803869 4.413633
vt -3.818159 5.107210
vt -4.125734 4.554599
vt -1.072545 -2.004700
vt 3.893310 5.082266
vt 3.893310 6.368865
vt 5.064556 1.523150
vt 5.031482 2.224874
vt 4.837616 0.907301
vt -3.723622 4.403172
vt -3.481065 4.043079
vt -3.166573 3.926114
vt -0.723553 -0.559571
vt -0.488323 4.840437
vt -0.702088 4.726287
vt -1.582167 4.817392
vt -1.790774 5.341271
vt -1.907461 4.853937
vt -3.262346 -3.331586
vt -2.852597 -3.189451
vt 1.334335 3.031353
vt 1.039909 2.946345
vt 1.259663 2.571621
vt -2.857066 -3.977837
vt 2.859009 3.341028
vt 2.875102 4.047386
vt 4.421138 4.696754
vt 4.453562 5.085698
vt 0.670288 2.950459
vt 0.658385 5.254218
vt 4.674587 4.626133
vt 3.620851 -0.145038
vt 3.921448 0.080830
vt 3.652709 0.450138
vt -1.801159 -1.875051
vt 2.248877 5.549310
vt -2.767897 4.004902
vt -0.480527 -0.427288
vt -0.099862 -0.928778
vt -0.140226 4.744377
vt 4.001044 1.371263
vt 3.864548 3.536647
vt -1.568494 -4.283295
vt -2.089186 -4.218223
vt 1.114105 2.169588
vt 2.140952 -3.901787
vt 1.671027 -2.571323
vt 1.735242 -3.811230
vt 3.305268 1.307914
vt -2.452834 3.926114
vt -2.289374 1.977304
vt -2.097359 3.778649
vt 2.071204 -2.839706
vt 1.895761 -2.281919
vt -0.314930 -1.350150
vt -0.216734 -4.208494
vt -0.667277 6.091389
vt -0.931411 5.856155
vt -0.667277 5.275821
vt 2.388785 -3.525747
vt 2.740971 -4.283295
vt 3.195543 0.692120
vt -1.197046 -2.516006
vt -0.931411 -1.816951
vt -1.518671 -2.504192
vt 3.195543 -4.026593
vt 3.289020 0.425121
vt 3.278018 4.618266
vt -2.389432 7.233780
vt -2.397714 6.442533
vt -2.099273 7.223051
vt -4.135297 0.791664
vt -4.203713 -1.916872
vt 0.472179 -3.715960
vt -2.097359 -1.673741
vt 3.961609 -1.279124
vt 4.640603 -4.283295
vt 0.237340 2.836620
vt 0.446425 2.692522
vt 0.356705 5.288729
vt 2.248877 -3.366896
vt 2.971081 0.885093
vt -3.161461 1.538186
vt 4.125865 -4.283295
vt 2.429467 -2.762093
vt 2.248877 -2.664581
vt 2.559804 1.148578
vt 2.915281 0.907301
vt 2.984163 1.346671
vt -3.158823 -3.945724
vt -2.826077 5.562991
vt -4.510225 4.686913
vt -0.687905 -4.237281
vt -0.661813 -1.385082
vt -0.931411 -4.128510
vt 0.237340 4.825336
vt 1.826312 5.810805
vt 3.286959 -3.374032
vt -4.428681 -2.101499
vt -4.084988 -2.595736
vt -3.884084 -2.074672
vt -3.877713 3.926114
vt -4.395860 4.034641
vt -0.134450 5.275821
vt -2.453505 4.422853
vt -2.378473 3.926114
vt -2.099273 4.278824
vt 2.078865 -4.283295
vt 4.677930 -1.979818
vt 4.815267 -1.252210
vt 0.237340 -4.283295
vt 0.162809 -1.746032
vt 3.280354 1.403864
vt 3.195543 -0.032111
vt -2.110959 6.328470
vt -0.667277 5.818149
vt -0.507020 5.275821
vt -0.392673 5.818149
vt 1.754569 1.559894
vt 0.986301 5.291597
vt 1.360434 5.236331
vt -4.053523 7.505655
vt 1.360435 -3.895542
vt 4.698539 -0.668286
vt -2.097359 -3.313191
vt 2.248877 3.447192
vt 2.669864 1.365876
vt -4.348380 7.114932
vt -2.305777 -4.121684
vt 2.001848 1.060949
vt 2.051780 1.473938
vt 1.591403 1.259914
vt -3.481803 0.576479
vt 4.498416 2.663724
vt 2.248877 1.005999
vt 2.643417 0.907301
vt -2.783438 -4.283295
vt 1.360435 -2.381927
vt 0.239406 -3.733577
vt -0.931411 5.310212
vt 4.001043 4.038815
vt 3.888991 0.688022
vt 1.730012 1.012763
vt 3.921448 -0.690483
vt -1.126054 -4.193757
vt 4.188403 -1.159732
vt 3.280354 5.744978
vt 3.496737 6.499436
vt -4.510225 -2.366869
vn 0.2504 -0.0082 0.9681
vn 0.1451 -0.9781 0.1490
vn 0.6325 -0.6293 0.4516
vn 0.6657 0.0181 -0.7460
vn 0.6685 0.0190 -0.7434
vn 0.6676 0.0187 -0.7443
vn 0.5848 -0.0120 0.8111
vn -0.7142 0.0369 -0.6990
vn 0.6952 -0.0033 0.7188
vn -0.6594 0.0271 -0.7513
vn -0.9860 -0.1537 -0.0648
vn 0.5652 0.5827 -0.5839
vn 0.4726 0.0137 -0.8812
vn 0.6771 -0.3644 -0.6393
vn -0.5981 -0.0015 0.8014
vn -0.1989 -0.4290 0.8811
vn 0.0000 -1.0000 0.0000
vn 0.7266 -0.4237 0.5408
vn 0.0357 -0.9992 -0.0172
vn -0.0709 0.0021 0.9975
vn 0.9459 0.0048 0.3243
vn -0.4671 0.6138 0.6364
vn 0.7986 0.5962 0.0824
vn 0.8535 -0.3335 0.4004
vn 0.9107 -0.0340 0.4116
vn 0.2330 -0.1904 0.9537
vn 0.7510 -0.2797 0.5981
vn -0.5571 -0.5364 0.6340
vn 0.8500 0.4450 -0.2821
vn 0.8321 -0.0250 -0.5540
vn 0.6628 0.6271 0.4093
vn -0.9702 -0.1740 -0.1686
vn 0.6642 0.6593 0.3524
vn 0.2030 -0.0009 -0.9792
vn -0.0668 0.6923 -0.7185
vn -0.9281 0.2559 -0.2704
vn -0.2665 0.0004 0.9638
vn 0.8452 -0.3949 -0.3601
vn 0.8043 0.3166 -0.5029
vn 0.7625 -0.5041 0.4056
vn 0.0100 0.0036 -0.9999
vn -0.7131 0.6994 0.0484
vn 0.1218 0.2922 -0.9486
vn 0.6234 0.6319 -0.4605
vn 0.1789 -0.0242 0.9836
vn 0.3464 0.8067 -0.4788
vn -0.8342 0.1321 0.5353
vn 0.1002 0.4901 0.8659
vn 0.6955 0.0026 0.7185
vn 0.6974 0.0031 0.7167
vn 0.6957 0.0018 0.7184
vn 0.8067 0.5081 0.3019
vn 0.3741 -0.8098 -0.4519
vn -0.7975 0.0026 0.6033
vn 0.9702 0.0129 0.2420
vn -0.6132 -0.0043 -0.7899
vn 0.1268 -0.0054 0.9919
vn 0.0038 -0.9990 -0.0440
vn -0.9010 -0.0192 0.4334
vn 0.2278 0.0002 0.9737
vn -0.9607 0.1316 0.2442
vn 0.9928 0.0057 0.1196
vn 0.9672 -0.0111 -0.2537
vn -0.2777 0.2134 0.9367
vn -0.7298 0.0101 -0.6836
vn 0.8302 0.0214 -0.5570
vn -0.3005 -0.6278 0.7181
vn -0.2218 -0.6474 -0.7292
vn -0.9857 -0.0078 -0.1685
vn -0.4057 -0.5846 0.7026
vn -0.7164 -0.6246 -0.3108
vn -0.1988 -0.9666 -0.1616
vn -0.8423 0.0878 0.5318
vn -0.8582 -0.0056 0.5134
vn -0.8569 -0.0055 0.5155
vn -0.8581 -0.0056 0.5134
vn 0.6489 -0.6692 -0.3621
vn -0.3393 -0.3476 0.8741
vn 0.8295 -0.0041 -0.5586
vn 0.8292 -0.0042 -0.5590
vn 0.8285 -0.0043 -0.5599
vn 0.8664 0.0044 0.4994
vn 0.6684 0.0051 -0.7438
vn -0.9940 0.0035 0.1091
vn -0.9942 0.0036 0.1076
vn -0.9945 0.0038 0.1048
vn 0.5807 0.6354 -0.5090
vn -0.0310 -0.9969 0.0728
vn -0.4672 0.6721 -0.5745
vn -0.0620 -0.9979 0.0163
vn -0.4837 0.0050 -0.8752
vn 0.9995 0.0059 -0.0319
vn 0.9994 0.0099 -0.0331
vn 0.9994 0.0098 -0.0331
vn -0.4618 0.6836 0.5651
vn -0.9933 0.0194 0.1143
vn -0.9792 -0.0044 -0.2031
vn 0.1795 0.0099 -0.9837
vn -0.4770 -0.0040 0.8789
vn 0.3488 0.3411 -0.8729
vn 0.2010 -0.3257 -0.9239
vn -0.2097 0.8040 0.5565
vn 0.0403 0.7115 -0.7015
vn 0.0336 0.7034 -0.7100
vn 0.0178 0.6836 -0.7296
vn 0.8989 0.0058 -0.4382
vn 0.6143 -0.0043 -0.7891
vn -0.8583 -0.0174 -0.5129
vn -0.0130 0.2534 -0.9673
vn 0.9995 0.0060 -0.0319
vn 0.8949 0.4240 0.1391
vn -0.9786 -0.1865 -0.0869
vn 0.3883 0.4436 0.8078
vn 0.6778 0.0013 0.7352
vn -0.9389 -0.0168 -0.3437
vn 0.6647 0.0178 -0.7469
vn 0.1046 -0.0000 -0.9945
vn -0.8712 0.0070 -0.4910
vn 0.3569 -0.3376 0.8710
vn 0.3105 0.6898 0.6540
vn 0.9343 0.0080 0.3564
vn -0.0282 0.6426 0.7657
vn -0.7912 0.6102 -0.0414
vn 0.8483 -0.1418 -0.5101
vn 0.8478 -0.1423 -0.5109
vn 0.8479 -0.1422 -0.5107
vn 0.2803 0.8370 -0.4700
vn -0.5903 0.5866 -0.5545
vn -0.7430 0.4409 -0.5035
vn -0.6596 0.5151 0.5474
vn -0.4073 0.0047 0.9133
vn -0.8600 -0.4495 0.2417
vn -0.4291 0.1587 -0.8892
vn -0.9448 -0.0099 -0.3275
vn -0.9936 0.0286 0.1096
vn 0.3849 0.0018 -0.9230
vn -0.6818 -0.7059 -0.1920
vn 0.6105 -0.2963 -0.7345
vn 0.8490 -0.1412 -0.5092
vn -0.8564 0.0334 0.5153
vn -0.9946 0.0039 0.1033
vn 0.3876 0.6456 0.6580
vn 0.9626 0.0402 0.2678
vn 0.2992 -0.0118 0.9541
vn 0.7995 -0.1749 0.5746
vn -0.9199 0.0016 -0.3922
vn -0.9194 0.0010 -0.3934
vn -0.9192 0.0009 -0.3937
vn 0.2048 -0.0095 -0.9788
vn 0.1724 0.0094 0.9850
vn -0.3738 0.8445 -0.3835
vn -0.8254 0.4236 0.3733
vn -0.2601 -0.4556 -0.8513
vn 0.0241 0.0063 0.9997
vn -0.2062 0.4392 -0.8744
vn 0.9241 0.3777 0.0585
vn -0.8576 -0.0055 0.5142
vn -0.4386 -0.0246 0.8984
vn 0.0477 0.0354 -0.9982
vn 0.2039 0.9775 0.0540
vn 0.0488 -0.9980 0.0391
vn 0.6972 0.0031 0.7169
vn 0.8283 -0.0044 -0.5603
vn -0.7418 0.6658 -0.0807
vn -0.7107 0.6834 0.1671
vn 0.8259 0.4767 0.3010
vn 0.8397 0.5116 0.1824
vn -0.9848 -0.1334 -0.1110
vn -0.4115 0.0061 -0.9114
vn 0.4433 -0.0002 -0.8964
vn -0.9685 0.0056 0.2488
vn 0.4718 0.4697 0.7462
vn 0.9211 0.0168 0.3889
vn 0.9737 -0.0071 0.2279
vn 0.9665 0.0737 0.2459
vn 0.9372 0.0009 0.3489
vn -0.2178 0.6945 0.6857
vn 0.7243 0.0117 -0.6893
vn 0.1553 -0.0141 -0.9878
vn 0.5398 0.7495 0.3833
vn -0.0281 0.9919 0.1242
vn -0.7336 0.2577 0.6288
vn -0.8103 -0.0020 0.5861
vn -0.1699 -0.0144 -0.9854
vn 0.9994 0.0009 0.0346
vn -0.2438 0.7321 0.6361
vn -0.0926 -0.3323 0.9386
vn 0.0513 0.0052 0.9987
vn 0.2485 0.4550 0.8551
vn -0.5752 -0.0008 0.8180
vn 0.7356 -0.6296 -0.2501
vn -0.5305 -0.0068 -0.8477
vn -0.8832 0.0079 0.4690
vn 0.8297 -0.0006 -0.5582
vn -0.5035 0.4482 -0.7386
vn 0.3212 -0.6502 -0.6885
vn 0.0574 0.7319 -0.6790
vn -0.4981 -0.0066 -0.8671
vn 0.5130 -0.0002 0.8584
vn -0.7589 0.6293 0.1674
vn -0.8991 0.1155 -0.4223
vn -0.3996 -0.0218 0.9164
vn -0.6872 -0.0157 0.7263
vn -0.2476 0.6581 0.7110
vn -0.1565 -0.0032 -0.9877
vn -0.8555 0.0094 0.5177
vn -0.5752 -0.3185 -0.7535
vn 0.9118 -0.1883 -0.3649
vn 0.1918 0.7434 -0.6407
vn 0.3502 0.7541 -0.5557
vn -0.5090 0.8600 0.0372
vn -0.3758 0.0201 0.9265
vn -0.0761 0.0096 0.9971
vn 0.0946 -0.8834 0.4590
vn -0.6248 0.5664 0.5374
vn -0.9200 0.0017 -0.3919
vn -0.5635 -0.2694 0.7809
vn 0.3464 -0.0262 0.9377
vn -0.3125 -0.0044 -0.9499
vn 0.2620 -0.7236 0.6386
vn -0.2408 0.8578 -0.4541
vn -0.0503 -0.9984 -0.0268
vn 0.7040 0.2942 -0.6465
vn 0.9761 -0.0087 0.2170
vn -0.7136 -0.2088 0.6687
vn -0.5473 -0.0087 -0.8369
vn -0.7800 0.4263 -0.4582
vn 0.2230 -0.0133 0.9747
vn -0.2862 0.9559 -0.0658
vn 0.3865 0.0141 0.9222
s 1
f 1/1/1 2/2/1 3/3/1
f 4/4/2 5/5/2 6/6/2
f 7/7/3 8/8/3 6/9/3
f 9/10/4 10/11/5 11/12/6
f 12/13/7 13/14/7 14/15/7
f 15/16/8 9/17/8 16/18/8
f 17/19/9 18/20/9 19/21/9
f 20/22/10 21/23/10 22/24/10
f 23/25/11 24/26/11 25/27/11
f 9/10/12 26/28/12 10/11/12
f 27/29/13 28/30/13 29/31/13
f 30/32/14 31/33/14 32/34/14
f 33/35/15 34/36/15 35/37/15
f 8/38/16 36/39/16 37/40/16
f 38/41/17 29/42/17 39/43/17
f 7/7/18 19/21/18 8/8/18
f 40/44/19 41/45/19 42/46/19
f 43/47/20 44/48/20 45/49/20
f 31/50/21 46/51/21 47/52/21
f 48/53/22 49/54/22 34/36/22
f 50/55/23 51/56/23 17/57/23
f 52/58/24 19/21/24 7/7/24
f 52/58/25 17/19/25 19/21/25
f 1/1/26 3/3/26 53/59/26
f 54/60/27 53/59/27 55/61/27
f 4/62/28 37/40/28 56/63/28
f 57/64/29 58/65/29 59/66/29
f 60/67/30 50/55/30 52/68/30
f 58/69/31 61/70/31 13/14/31
f 62/71/32 63/72/32 64/73/32
f 51/74/33 18/20/33 17/19/33
f 27/29/34 65/75/34 66/76/34
f 67/77/35 60/67/35 12/78/35
f 68/79/36 69/80/36 67/81/36
f 54/82/37 48/53/37 33/35/37
f 70/83/38 7/84/38 6/6/38
f 33/85/39 71/86/39 54/87/39
f 72/88/40 73/89/40 74/90/40
f 65/91/41 75/92/41 66/93/41
f 76/94/42 77/95/42 78/96/42
f 75/97/43 79/98/43 66/76/43
f 79/98/44 58/65/44 57/64/44
f 54/99/45 4/100/45 56/101/45
f 80/102/46 58/65/46 79/98/46
f 36/39/47 69/103/47 68/104/47
f 81/105/48 26/106/48 2/2/48
f 5/107/49 4/100/50 73/108/51
f 10/109/52 26/106/52 81/105/52
f 82/110/53 32/111/53 83/112/53
f 34/36/54 76/94/54 84/113/54
f 85/114/55 46/51/55 31/50/55
f 74/90/17 86/115/17 40/44/17
f 87/116/56 88/117/56 89/118/56
f 18/20/57 90/119/57 91/120/57
f 74/90/58 40/44/58 42/46/58
f 40/121/59 84/113/59 41/122/59
f 92/123/60 14/15/60 56/101/60
f 88/124/61 45/125/61 93/126/61
f 50/127/62 17/19/62 52/58/62
f 39/128/63 94/129/63 72/130/63
f 95/131/64 43/132/64 45/125/64
f 88/117/65 96/133/65 97/134/65
f 28/30/66 94/129/66 39/128/66
f 53/135/67 23/136/67 25/137/67
f 64/73/68 30/138/68 82/139/68
f 62/71/69 98/140/69 63/72/69
f 55/141/70 53/142/70 25/143/70
f 93/144/71 64/73/71 82/139/71
f 96/145/72 82/110/72 83/112/72
f 36/39/73 68/104/73 92/146/73
f 35/37/74 84/113/75 40/121/76
f 5/5/77 70/83/77 6/6/77
f 53/147/78 3/148/78 23/149/78
f 99/150/79 100/151/80 31/33/81
f 13/14/82 12/13/82 101/152/82
f 79/98/83 57/64/83 28/30/83
f 84/113/84 76/94/85 102/153/86
f 103/154/87 51/56/87 50/55/87
f 38/41/88 39/43/88 42/46/88
f 15/16/89 26/155/89 9/17/89
f 42/46/90 39/43/90 72/88/90
f 89/118/91 75/92/91 87/116/91
f 94/156/92 70/157/93 72/158/94
f 87/159/95 95/131/95 88/124/95
f 84/113/96 102/153/96 41/122/96
f 98/140/97 104/160/97 63/72/97
f 29/31/98 83/161/98 27/29/98
f 40/121/99 55/141/99 25/143/99
f 12/78/100 60/67/100 70/162/100
f 105/163/101 99/164/101 30/138/101
f 18/165/102 51/166/102 106/167/102
f 77/168/103 79/98/104 75/97/105
f 57/64/106 59/66/106 94/129/106
f 29/31/107 28/30/107 39/128/107
f 69/80/108 20/22/108 22/24/108
f 41/45/17 97/169/17 38/41/17
f 67/81/109 22/24/109 60/170/109
f 94/156/92 101/152/110 70/157/93
f 27/29/111 31/33/111 65/75/111
f 93/144/112 62/71/112 64/73/112
f 13/14/113 61/70/113 14/15/113
f 92/123/114 12/13/114 14/15/114
f 24/26/115 15/16/115 16/18/115
f 71/86/116 9/10/4 11/12/6
f 38/171/117 83/172/117 29/173/117
f 89/118/118 88/117/118 78/174/118
f 19/21/119 91/120/119 8/8/119
f 46/51/120 107/175/120 44/48/120
f 70/157/121 5/107/121 73/108/121
f 95/131/122 45/125/122 88/124/122
f 49/54/123 77/95/123 76/94/123
f 60/67/124 52/68/125 7/176/126
f 108/177/127 107/178/127 85/179/127
f 92/180/128 67/81/128 12/181/128
f 78/174/129 77/182/129 89/118/129
f 2/183/130 26/184/130 15/185/130
f 48/53/131 34/36/131 33/35/131
f 96/186/132 88/124/132 93/126/132
f 16/18/133 71/187/133 33/188/133
f 41/189/134 102/190/134 97/134/134
f 106/167/135 20/191/135 69/103/135
f 66/76/136 79/98/136 27/29/136
f 93/192/137 82/110/137 96/145/137
f 30/32/138 99/150/138 31/33/138
f 60/67/124 7/176/126 70/162/139
f 2/183/140 15/185/140 24/193/140
f 76/94/85 78/96/141 102/153/86
f 65/194/142 95/195/142 87/196/142
f 31/50/143 47/52/143 95/197/143
f 74/198/144 4/100/144 86/199/144
f 1/1/145 53/59/145 54/60/145
f 88/117/146 102/190/147 78/174/148
f 108/177/149 100/151/149 99/150/149
f 4/100/150 54/99/150 86/199/150
f 20/22/151 51/200/151 21/23/151
f 56/63/152 36/39/152 92/146/152
f 64/73/153 105/163/153 30/138/153
f 14/15/154 48/201/154 54/99/154
f 33/188/155 35/202/155 16/18/155
f 59/66/156 58/65/156 101/203/156
f 25/143/157 35/37/74 40/121/76
f 91/204/158 90/205/158 36/39/158
f 21/23/159 103/206/159 60/170/159
f 80/102/160 61/207/160 58/65/160
f 41/45/161 38/41/161 42/46/161
f 73/108/51 4/100/50 74/198/162
f 100/151/80 85/179/163 31/33/81
f 68/79/164 67/81/164 92/180/164
f 109/208/165 107/209/165 104/210/165
f 58/69/166 13/14/166 101/152/166
f 31/33/167 95/211/167 65/75/167
f 25/27/168 24/26/168 35/202/168
f 96/133/169 83/172/169 38/171/169
f 79/98/170 28/30/170 27/29/170
f 36/39/171 106/167/171 69/103/171
f 47/52/172 43/47/172 95/197/172
f 10/109/173 81/105/173 1/1/173
f 72/158/174 70/157/174 73/108/174
f 54/60/175 11/212/175 1/1/175
f 70/157/176 101/152/176 12/13/176
f 44/213/177 107/209/177 109/208/177
f 103/154/178 50/55/178 60/67/178
f 105/163/179 108/214/179 99/164/179
f 85/114/180 107/175/180 46/51/180
f 61/207/181 80/102/181 49/215/181
f 45/125/182 62/216/182 93/126/182
f 45/125/183 109/208/183 62/216/183
f 16/18/184 9/17/184 71/187/184
f 94/156/185 59/217/185 101/152/185
f 61/218/186 49/54/186 48/53/186
f 8/8/187 91/120/187 36/219/187
f 56/101/188 14/15/188 54/99/188
f 61/70/189 48/201/189 14/15/189
f 90/205/190 106/167/190 36/39/190
f 32/111/191 27/220/191 83/112/191
f 104/160/192 108/214/192 105/163/192
f 109/208/193 98/221/193 62/216/193
f 28/30/194 57/64/194 94/129/194
f 89/118/195 77/182/195 75/92/195
f 82/110/196 30/222/196 32/111/196
f 77/168/103 80/102/197 79/98/104
f 97/134/198 96/133/198 38/171/198
f 47/52/199 46/51/199 43/47/199
f 109/208/200 104/210/200 98/221/200
f 24/26/201 16/18/201 35/202/201
f 55/141/202 40/121/202 86/223/202
f 3/148/203 2/183/203 24/193/203
f 18/165/204 106/167/204 90/205/204
f 87/116/205 75/92/205 65/91/205
f 35/37/206 34/36/206 84/113/206
f 63/72/207 105/163/207 64/73/207
f 32/34/208 31/33/208 27/29/208
f 21/224/209 51/56/209 103/154/209
f 108/177/210 85/179/210 100/151/210
f 106/167/211 51/166/211 20/191/211
f 44/213/212 109/208/212 45/125/212
f 54/82/213 55/141/213 86/223/213
f 4/4/214 6/6/214 37/225/214
f 34/36/215 49/54/215 76/94/215
f 102/190/147 88/117/146 97/134/216
f 37/40/217 36/39/217 56/63/217
f 19/21/218 18/20/218 91/120/218
f 22/24/219 21/23/219 60/170/219
f 6/6/220 8/226/220 37/225/220
f 104/227/221 107/178/221 108/177/221
f 42/46/222 72/88/222 74/90/222
f 71/86/223 11/12/223 54/87/223
f 11/212/224 10/109/224 1/1/224
f 3/148/225 24/193/225 23/149/225
f 63/72/226 104/160/226 105/163/226
f 69/80/227 22/24/227 67/81/227
f 1/1/228 81/105/228 2/2/228
f 49/215/229 80/102/229 77/168/229
f 46/51/230 44/48/230 43/47/230
