# Blender v2.79 (sub 0) OBJ File: 'stone4.blend'
# www.blender.org
o Stone_5_Stone.004
v -0.188064 0.004027 0.094899
v -0.174803 0.090146 0.105615
v -0.244995 0.032920 -0.097746
v -0.199469 -0.101366 0.050751
v -0.144822 -0.067224 0.271765
v -0.103196 0.007727 0.311139
v -0.214204 0.084451 -0.062905
v -0.250956 -0.047476 -0.113490
v -0.169258 -0.125116 0.229784
v -0.153880 0.060172 -0.479460
v -0.144513 0.115620 -0.377165
v -0.071089 0.032399 -0.494976
v -0.160655 -0.020757 -0.496346
v -0.206849 0.063011 -0.368715
v -0.186640 0.128098 -0.310937
v -0.048773 0.099324 -0.394022
v -0.033213 -0.029679 -0.504544
v -0.229479 -0.012602 -0.394432
v 0.220926 -0.008988 -0.190851
v 0.217117 0.075636 -0.161682
v 0.233880 -0.009036 -0.013791
v 0.181236 -0.082211 -0.220882
v 0.129781 0.000709 -0.312862
v 0.132361 0.072925 -0.261309
v 0.228055 0.021814 -0.005339
v 0.191701 -0.066864 -0.033033
v 0.103837 -0.060901 -0.350016
v 0.147910 -0.067901 0.437455
v 0.161334 0.044666 0.459148
v 0.020234 -0.072660 0.499385
v 0.122128 -0.159985 0.359730
v 0.226439 -0.062620 0.314299
v 0.249044 0.036695 0.337348
v 0.033419 0.039113 0.493965
v 0.001410 -0.147354 0.393466
v 0.198999 -0.123742 0.271541
v -0.062370 -0.216330 -0.132533
v -0.153206 -0.226987 -0.066329
v -0.100160 -0.174310 -0.295661
v 0.054362 -0.208626 -0.190662
v -0.009243 -0.205355 0.037419
v -0.104770 -0.220168 0.119658
v -0.195309 -0.159283 -0.223038
v -0.005593 -0.167786 -0.351035
v 0.073595 -0.177705 -0.005978
v 0.025627 0.265829 0.047233
v 0.129771 0.228568 -0.028620
v -0.038553 0.226356 -0.121400
v -0.060664 0.222072 0.092463
v 0.095240 0.240679 0.240365
v 0.180114 0.198189 0.142755
v 0.048195 0.195752 -0.181797
v -0.123422 0.214114 -0.087425
v -0.022802 0.189427 0.241113
v -0.103391 -0.138025 0.349466
v -0.079200 -0.058837 0.407893
v -0.055459 0.025006 0.422492
v -0.066746 0.132110 0.249542
v -0.134000 0.152308 0.118409
v -0.163337 0.179598 -0.052696
v -0.210461 0.108279 -0.217423
v -0.247450 0.054839 -0.232756
v -0.246762 -0.014206 -0.273102
v -0.232424 -0.124012 -0.157351
v -0.188693 -0.147956 -0.000858
v -0.155789 -0.194453 0.181306
v -0.161075 0.175308 -0.213389
v -0.096002 0.161773 -0.258728
v -0.016377 0.138925 -0.301120
v 0.024138 0.070432 -0.389759
v 0.021200 0.014661 -0.466131
v 0.034294 -0.049775 -0.485902
v -0.035406 -0.113413 -0.472351
v -0.126720 -0.098645 -0.435646
v -0.204106 -0.082868 -0.342814
v 0.117207 0.151866 -0.220842
v 0.188031 0.166070 -0.111853
v 0.209830 0.136084 0.094361
v 0.241923 0.039767 0.196515
v 0.237881 -0.057701 0.180061
v 0.225055 -0.078924 0.169016
v 0.136400 -0.134429 -0.035790
v 0.132903 -0.157668 -0.215641
v 0.059398 -0.115610 -0.348593
v 0.208724 0.124111 0.283117
v 0.136746 0.151544 0.380144
v 0.037118 0.103960 0.403888
v -0.038955 -0.212629 0.268880
v 0.059749 -0.184640 0.254329
v 0.139778 -0.136755 0.189719
v -0.105932 -0.188653 0.277772
v -0.233617 -0.071763 -0.260316
v 0.018176 -0.087502 -0.466744
v 0.178036 -0.113701 0.122788
v -0.015322 0.069439 0.401487
v -0.174064 0.167597 -0.170105
v 0.045608 0.104939 -0.313272
v 0.236461 0.097576 0.195633
vt 0.770727 0.381345
vt 0.675904 0.413634
vt 0.662229 0.361349
vt 0.766730 0.330311
vt 0.696244 0.290953
vt 0.603724 0.388417
vt 0.612553 0.337784
vt 0.620452 0.303618
vt 0.839567 0.324451
vt 0.865559 0.353239
vt 0.893618 0.283186
vt 0.756786 0.292942
vt 0.818726 0.271969
vt 0.860548 0.260319
vt 0.247152 0.015415
vt 0.353143 0.034034
vt 0.332655 0.080249
vt 0.324771 0.123241
vt 0.262617 0.115919
vt 0.416454 0.064359
vt 0.399031 0.105882
vt 0.372181 0.126019
vt 0.251995 0.085567
vt 0.176009 0.091267
vt 0.149292 0.058884
vt 0.121452 0.115317
vt 0.191456 0.125893
vt 0.152815 0.134202
vt 0.961558 0.258793
vt 0.916971 0.246929
vt 0.936609 0.216594
vt 0.871447 0.246022
vt 0.878435 0.209458
vt 0.918504 0.313183
vt 0.991123 0.203778
vt 0.927202 0.162388
vt 0.914976 0.118981
vt 0.957113 0.096828
vt 0.880185 0.164054
vt 0.876334 0.126161
vt 0.485512 0.239879
vt 0.440998 0.254783
vt 0.449237 0.190153
vt 0.399252 0.243675
vt 0.404071 0.202032
vt 0.453988 0.302793
vt 0.417317 0.282393
vt 0.401291 0.269001
vt 0.497699 0.177074
vt 0.431334 0.143772
vt 0.469588 0.115516
vt 0.390495 0.155000
vt 0.796834 0.016657
vt 0.872796 0.045573
vt 0.841903 0.081847
vt 0.785085 0.066127
vt 0.821119 0.120342
vt 0.715902 0.045027
vt 0.713700 0.025988
vt 0.637525 0.084159
vt 0.773247 0.111843
vt 0.699581 0.114946
vt 0.653917 0.111836
vt 0.290023 0.397642
vt 0.201147 0.392653
vt 0.215812 0.349111
vt 0.298394 0.345536
vt 0.223866 0.299156
vt 0.112533 0.343420
vt 0.121844 0.329786
vt 0.152476 0.303877
vt 0.367010 0.322432
vt 0.371851 0.367180
vt 0.293723 0.299241
vt 0.355536 0.284950
vt 0.556562 0.059672
vt 0.587245 0.111161
vt 0.533043 0.157773
vt 0.631111 0.143273
vt 0.605938 0.201800
vt 0.614929 0.030731
vt 0.477242 0.290173
vt 0.532094 0.237926
vt 0.571311 0.302137
vt 0.533461 0.357744
vt 0.612933 0.268952
vt 0.014990 0.150886
vt 0.083652 0.162595
vt 0.077892 0.228386
vt 0.144642 0.165957
vt 0.127927 0.213406
vt 0.071689 0.087446
vt 0.014081 0.242524
vt 0.088998 0.284360
vt 0.134094 0.270205
vt 0.217052 0.210600
vt 0.204436 0.156388
vt 0.269961 0.159957
vt 0.281257 0.203148
vt 0.332655 0.154461
vt 0.342390 0.201463
vt 0.350650 0.246161
vt 0.289014 0.256876
vt 0.221253 0.256516
vt 0.753023 0.201899
vt 0.686789 0.199563
vt 0.697945 0.150685
vt 0.758631 0.152716
vt 0.820131 0.160000
vt 0.814775 0.205292
vt 0.820789 0.244433
vt 0.754222 0.245036
vt 0.697976 0.255313
vt 0.986156 0.149488
vt 0.492233 0.099186
vt 0.054305 0.310145
vn -0.9557 0.1001 0.2769
vn -0.9041 0.1645 0.3945
vn -0.8473 0.3582 0.3922
vn -0.8960 0.3115 0.3166
vn -0.7076 0.5276 0.4701
vn -0.7757 -0.1224 0.6192
vn -0.7438 0.4294 0.5122
vn -0.5823 0.6853 0.4374
vn -0.8986 0.4058 0.1667
vn -0.9590 0.2380 0.1536
vn -0.8295 0.5583 -0.0161
vn -0.7343 0.5905 0.3348
vn -0.7543 0.6455 0.1199
vn -0.7690 0.6386 -0.0290
vn -0.9860 -0.1208 0.1149
vn -0.9020 -0.4312 -0.0206
vn -0.8679 -0.4730 0.1516
vn -0.9501 0.3059 -0.0609
vn -0.9851 -0.0706 -0.1567
vn -0.9207 -0.3377 -0.1955
vn -0.9677 -0.1784 0.1784
vn -0.9298 -0.1552 0.3339
vn -0.6504 -0.4705 0.5964
vn -0.6930 -0.6991 0.1763
vn -0.4959 -0.7650 0.4108
vn -0.8188 0.4754 -0.3218
vn -0.5825 0.7549 -0.3014
vn -0.2521 0.8669 -0.4299
vn -0.4369 0.8671 -0.2391
vn -0.0394 0.9224 -0.3842
vn -0.3859 0.5840 -0.7141
vn 0.2091 0.8442 -0.4935
vn 0.5008 0.6992 -0.5101
vn 0.5657 0.4955 -0.6591
vn 0.1820 0.8649 -0.4678
vn 0.4280 0.7365 -0.5238
vn 0.1381 0.5001 -0.8549
vn 0.1041 -0.0721 -0.9920
vn -0.4988 -0.2328 -0.8349
vn -0.0242 -0.6900 -0.7234
vn -0.4290 -0.7256 -0.5381
vn 0.6080 -0.1305 -0.7831
vn 0.4883 -0.5991 -0.6345
vn -0.9236 -0.1050 -0.3687
vn -0.7368 -0.5907 -0.3289
vn 0.9378 -0.1023 -0.3317
vn 0.8002 0.1843 -0.5706
vn 0.6801 0.4204 -0.6006
vn 0.8991 0.2968 -0.3218
vn 0.4749 0.6883 -0.5484
vn 0.9758 0.2087 -0.0657
vn 0.9791 -0.1769 -0.1004
vn 0.9971 0.0749 -0.0096
vn 0.7439 0.6216 -0.2454
vn 0.9178 0.3861 -0.0924
vn 0.9649 0.2600 0.0357
vn 0.7995 -0.5953 -0.0803
vn 0.8509 -0.4200 -0.3154
vn 0.6805 -0.7327 -0.0042
vn 0.9593 -0.2820 -0.0129
vn 0.7650 -0.6362 -0.0998
vn 0.6123 -0.7889 -0.0521
vn 0.8046 -0.2684 -0.5297
vn 0.6633 -0.7116 -0.2318
vn 0.6201 -0.6550 -0.4319
vn 0.8803 -0.3804 0.2834
vn 0.9439 0.1073 0.3124
vn 0.5204 0.2329 0.8216
vn 0.7977 0.5631 0.2159
vn 0.2720 0.7578 0.5931
vn 0.5899 -0.4029 0.6997
vn -0.1478 0.4132 0.8986
vn -0.1526 -0.3601 0.9204
vn -0.2923 0.7530 0.5895
vn -0.1653 -0.8152 0.5551
vn 0.3847 -0.8545 0.3490
vn 0.0041 -0.9608 0.2771
vn 0.3352 -0.9394 0.0722
vn 0.6657 -0.7435 0.0635
vn 0.4756 -0.8770 -0.0680
vn 0.2570 -0.9664 0.0026
vn -0.2175 -0.9758 0.0226
vn -0.4317 -0.9020 -0.0009
vn 0.0038 -0.9933 -0.1159
vn -0.6103 -0.7467 -0.2645
vn -0.2713 -0.9078 -0.3198
vn 0.2012 -0.8982 -0.3909
vn 0.2964 -0.9464 -0.1279
vn 0.4251 -0.9044 0.0382
vn -0.0616 0.9981 0.0033
vn 0.1284 0.9341 0.3330
vn 0.6977 0.7161 0.0192
vn 0.4626 0.8739 -0.1491
vn 0.1902 0.8913 -0.4117
vn -0.0828 0.9628 -0.2573
vn -0.4052 0.9128 -0.0518
vn -0.4730 0.8570 0.2045
vn -0.4988 0.7487 0.4366
s 1
f 1/1/1 5/2/2 6/3/3
f 2/4/4 6/3/3 58/5/5
f 56/6/6 57/7/7 6/3/3
f 6/3/3 57/7/7 95/8/8
f 1/1/1 2/4/4 7/9/9
f 3/10/10 7/9/9 61/11/11
f 2/4/4 59/12/12 60/13/13
f 7/9/9 60/13/13 96/14/14
f 1/15/1 3/16/10 8/17/15
f 8/17/15 64/18/16 65/19/17
f 3/16/10 62/20/18 63/21/19
f 8/17/15 63/21/19 92/22/20
f 1/15/1 4/23/21 9/24/22
f 5/25/2 9/24/22 55/26/23
f 4/23/21 65/19/17 66/27/24
f 9/24/22 66/27/24 91/28/25
f 14/29/26 15/30/27 11/31/28
f 15/30/27 67/32/29 68/33/30
f 62/34/18 61/11/11 15/30/27
f 61/11/11 96/14/14 67/32/29
f 10/35/31 11/31/28 16/36/32
f 16/36/32 70/37/33 71/38/34
f 68/33/30 69/39/35 16/36/32
f 69/39/35 97/40/36 70/37/33
f 12/41/37 17/42/38 13/43/39
f 17/42/38 73/44/40 74/45/41
f 71/46/34 72/47/42 17/42/38
f 17/42/38 72/47/42 93/48/43
f 10/49/31 13/43/39 18/50/44
f 14/51/26 18/50/44 63/21/19
f 74/45/41 75/52/45 18/50/44
f 75/52/45 92/22/20 63/21/19
f 19/53/46 23/54/47 24/55/48
f 20/56/49 24/55/48 76/57/50
f 23/54/47 71/38/34 70/37/33
f 24/55/48 70/37/33 97/40/36
f 19/53/46 20/56/49 25/58/51
f 21/59/52 25/58/51 79/60/53
f 77/61/54 78/62/55 25/58/51
f 78/62/55 98/63/56 79/60/53
f 19/64/46 21/65/52 26/66/57
f 22/67/58 26/66/57 82/68/59
f 21/65/52 80/69/60 81/70/61
f 26/66/57 81/70/61 94/71/62
f 22/67/58 27/72/63 23/73/47
f 27/72/63 72/47/42 71/46/34
f 83/74/64 84/75/65 27/72/63
f 27/72/63 84/75/65 93/48/43
f 32/76/66 33/77/67 29/78/68
f 33/77/67 85/79/69 86/80/70
f 32/76/66 80/81/60 79/60/53
f 79/60/53 98/63/56 85/79/69
f 28/82/71 29/83/68 34/84/72
f 30/85/73 34/84/72 57/7/7
f 29/83/68 86/80/70 87/86/74
f 34/84/72 87/86/74 95/8/8
f 30/87/73 35/88/75 31/89/76
f 35/88/75 88/90/77 89/91/78
f 56/92/6 55/26/23 35/88/75
f 55/26/23 91/28/25 88/90/77
f 28/93/71 31/89/76 36/94/79
f 36/94/79 81/70/61 80/69/60
f 31/89/76 89/91/78 90/95/80
f 90/95/80 94/71/62 81/70/61
f 41/96/81 42/97/82 38/98/83
f 42/97/82 66/27/24 65/19/17
f 41/96/81 89/91/78 88/90/77
f 42/97/82 88/90/77 91/28/25
f 37/99/84 38/98/83 43/100/85
f 39/101/86 43/100/85 75/52/45
f 38/98/83 65/19/17 64/18/16
f 43/100/85 64/18/16 92/22/20
f 39/101/86 44/102/87 40/103/88
f 40/103/88 44/102/87 84/75/65
f 74/45/41 73/44/40 44/102/87
f 44/102/87 73/44/40 93/48/43
f 37/99/84 40/103/88 45/104/89
f 41/96/81 45/104/89 90/95/80
f 40/103/88 83/74/64 82/68/59
f 45/104/89 82/68/59 94/71/62
f 46/105/90 50/106/91 51/107/92
f 47/108/93 51/107/92 78/62/55
f 50/106/91 86/80/70 85/79/69
f 51/107/92 85/79/69 98/63/56
f 47/108/93 52/109/94 48/110/95
f 52/109/94 69/39/35 68/33/30
f 77/61/54 76/57/50 52/109/94
f 52/109/94 76/57/50 97/40/36
f 48/110/95 53/111/96 49/112/97
f 49/112/97 53/111/96 60/13/13
f 68/33/30 67/32/29 53/111/96
f 53/111/96 67/32/29 96/14/14
f 46/105/90 49/112/97 54/113/98
f 54/113/98 87/86/74 86/80/70
f 59/12/12 58/5/5 54/113/98
f 58/5/5 95/8/8 87/86/74
f 2/4/4 1/1/1 6/3/3
f 59/12/12 2/4/4 58/5/5
f 5/2/2 56/6/6 6/3/3
f 58/5/5 6/3/3 95/8/8
f 3/10/10 1/1/1 7/9/9
f 62/34/18 3/10/10 61/11/11
f 7/9/9 2/4/4 60/13/13
f 61/11/11 7/9/9 96/14/14
f 4/23/21 1/15/1 8/17/15
f 4/23/21 8/17/15 65/19/17
f 8/17/15 3/16/10 63/21/19
f 64/18/16 8/17/15 92/22/20
f 5/25/2 1/15/1 9/24/22
f 56/92/6 5/25/2 55/26/23
f 9/24/22 4/23/21 66/27/24
f 55/26/23 9/24/22 91/28/25
f 10/35/31 14/29/26 11/31/28
f 11/31/28 15/30/27 68/33/30
f 14/29/26 62/34/18 15/30/27
f 15/30/27 61/11/11 67/32/29
f 12/114/37 10/35/31 16/36/32
f 12/114/37 16/36/32 71/38/34
f 11/31/28 68/33/30 16/36/32
f 16/36/32 69/39/35 70/37/33
f 10/49/31 12/41/37 13/43/39
f 13/43/39 17/42/38 74/45/41
f 12/41/37 71/46/34 17/42/38
f 73/44/40 17/42/38 93/48/43
f 14/51/26 10/49/31 18/50/44
f 62/20/18 14/51/26 63/21/19
f 13/43/39 74/45/41 18/50/44
f 18/50/44 75/52/45 63/21/19
f 20/56/49 19/53/46 24/55/48
f 77/61/54 20/56/49 76/57/50
f 24/55/48 23/54/47 70/37/33
f 76/57/50 24/55/48 97/40/36
f 21/59/52 19/53/46 25/58/51
f 80/81/60 21/59/52 79/60/53
f 20/56/49 77/61/54 25/58/51
f 25/58/51 78/62/55 79/60/53
f 22/67/58 19/64/46 26/66/57
f 83/74/64 22/67/58 82/68/59
f 26/66/57 21/65/52 81/70/61
f 82/68/59 26/66/57 94/71/62
f 19/64/46 22/67/58 23/73/47
f 23/73/47 27/72/63 71/46/34
f 22/67/58 83/74/64 27/72/63
f 72/47/42 27/72/63 93/48/43
f 28/115/71 32/76/66 29/78/68
f 29/78/68 33/77/67 86/80/70
f 33/77/67 32/76/66 79/60/53
f 33/77/67 79/60/53 85/79/69
f 30/85/73 28/82/71 34/84/72
f 56/6/6 30/85/73 57/7/7
f 34/84/72 29/83/68 87/86/74
f 57/7/7 34/84/72 95/8/8
f 28/93/71 30/87/73 31/89/76
f 31/89/76 35/88/75 89/91/78
f 30/87/73 56/92/6 35/88/75
f 35/88/75 55/26/23 88/90/77
f 32/116/66 28/93/71 36/94/79
f 32/116/66 36/94/79 80/69/60
f 36/94/79 31/89/76 90/95/80
f 36/94/79 90/95/80 81/70/61
f 37/99/84 41/96/81 38/98/83
f 38/98/83 42/97/82 65/19/17
f 42/97/82 41/96/81 88/90/77
f 66/27/24 42/97/82 91/28/25
f 39/101/86 37/99/84 43/100/85
f 74/45/41 39/101/86 75/52/45
f 43/100/85 38/98/83 64/18/16
f 75/52/45 43/100/85 92/22/20
f 37/99/84 39/101/86 40/103/88
f 83/74/64 40/103/88 84/75/65
f 39/101/86 74/45/41 44/102/87
f 84/75/65 44/102/87 93/48/43
f 41/96/81 37/99/84 45/104/89
f 89/91/78 41/96/81 90/95/80
f 45/104/89 40/103/88 82/68/59
f 90/95/80 45/104/89 94/71/62
f 47/108/93 46/105/90 51/107/92
f 77/61/54 47/108/93 78/62/55
f 51/107/92 50/106/91 85/79/69
f 78/62/55 51/107/92 98/63/56
f 46/105/90 47/108/93 48/110/95
f 48/110/95 52/109/94 68/33/30
f 47/108/93 77/61/54 52/109/94
f 69/39/35 52/109/94 97/40/36
f 46/105/90 48/110/95 49/112/97
f 59/12/12 49/112/97 60/13/13
f 48/110/95 68/33/30 53/111/96
f 60/13/13 53/111/96 96/14/14
f 50/106/91 46/105/90 54/113/98
f 50/106/91 54/113/98 86/80/70
f 49/112/97 59/12/12 54/113/98
f 54/113/98 58/5/5 87/86/74
