# Blender v2.79 (sub 0) OBJ File: 'stone2.blend'
# www.blender.org
o Stone_4_Stone.003
v -0.350953 0.077660 0.262513
v -0.329853 0.112681 0.238210
v -0.454365 0.069303 0.056156
v -0.366628 0.041156 0.243184
v -0.187985 0.038020 0.393534
v -0.181320 0.054837 0.381491
v -0.402272 0.145525 0.057527
v -0.455730 0.049391 0.073110
v -0.198627 0.019385 0.385774
v -0.340362 0.046284 -0.412892
v -0.314279 0.092775 -0.386067
v -0.156727 -0.030729 -0.510734
v -0.334197 -0.003383 -0.402248
v -0.443874 0.070835 -0.287819
v -0.409248 0.125323 -0.264000
v -0.114926 0.036456 -0.456519
v -0.175865 -0.068337 -0.499723
v -0.456647 0.020523 -0.267051
v 0.322985 -0.057994 -0.198785
v 0.331258 -0.021549 -0.207594
v 0.442983 -0.089118 -0.006947
v 0.287763 -0.091365 -0.193058
v 0.186067 -0.047132 -0.396085
v 0.208681 -0.004384 -0.379426
v 0.450180 -0.039544 -0.019188
v 0.424416 -0.127469 0.010246
v 0.153865 -0.111822 -0.374070
v 0.329504 -0.048375 0.445334
v 0.333161 0.011940 0.436367
v 0.159076 0.013634 0.511708
v 0.296474 -0.097022 0.434979
v 0.461929 -0.079805 0.330209
v 0.456522 -0.020508 0.320414
v 0.147103 0.057971 0.518120
v 0.153050 -0.038665 0.478767
v 0.424710 -0.120202 0.312109
v -0.098009 -0.128706 0.005215
v -0.219183 -0.084659 0.120400
v -0.206736 -0.143400 -0.176488
v 0.128816 -0.125749 -0.079454
v 0.113979 -0.141903 0.215366
v -0.068907 -0.104520 0.308365
v -0.318841 -0.089042 -0.051725
v -0.029368 -0.179710 -0.269999
v 0.264427 -0.175933 0.123205
v 0.054101 0.140351 -0.014944
v 0.193055 0.116423 -0.111057
v -0.087505 0.190756 -0.174051
v -0.137460 0.179207 0.082784
v 0.196655 0.068312 0.234170
v 0.336562 0.059124 0.120672
v 0.078272 0.165988 -0.270273
v -0.233329 0.203424 -0.055905
v -0.030079 0.067346 0.267721
v -0.038888 0.002552 0.474065
v -0.001362 0.034549 0.499095
v 0.019563 0.057783 0.502106
v -0.152155 0.093417 0.303940
v -0.265748 0.142764 0.193180
v -0.356947 0.174945 0.031629
v -0.456181 0.124485 -0.124983
v -0.484486 0.086938 -0.123615
v -0.491960 0.032239 -0.114777
v -0.431374 -0.003120 0.036988
v -0.327792 -0.008638 0.209451
v -0.161394 -0.045098 0.353352
v -0.339762 0.177798 -0.198775
v -0.224651 0.127731 -0.316955
v -0.053376 0.112595 -0.389251
v 0.055200 0.014721 -0.473561
v 0.039102 -0.040865 -0.495427
v 0.018137 -0.089141 -0.475358
v -0.143614 -0.138937 -0.402958
v -0.295838 -0.075689 -0.318986
v -0.425236 -0.048120 -0.209552
v 0.190948 0.064271 -0.335660
v 0.307548 0.049177 -0.176618
v 0.421013 0.014480 -0.004447
v 0.508040 -0.040463 0.144671
v 0.497533 -0.101805 0.154464
v 0.470564 -0.137797 0.145491
v 0.352809 -0.164285 0.026630
v 0.232201 -0.130195 -0.156430
v 0.104815 -0.155188 -0.325471
v 0.415573 0.053340 0.247809
v 0.298378 0.070497 0.356266
v 0.125038 0.092015 0.449603
v 0.040181 -0.068749 0.397895
v 0.236224 -0.141149 0.349859
v 0.282469 -0.162857 0.218549
v -0.067698 -0.048068 0.417763
v -0.467229 -0.010598 -0.089788
v -0.006694 -0.145399 -0.416480
v 0.412502 -0.158909 0.124835
v 0.028056 0.074569 0.439926
v -0.385752 0.181497 -0.101457
v 0.072572 0.087935 -0.428692
v 0.480082 0.008684 0.132409
vt 0.692254 0.575481
vt 0.713576 0.503495
vt 0.720086 0.508562
vt 0.708638 0.582317
vt 0.744729 0.532128
vt 0.754785 0.445166
vt 0.764708 0.447413
vt 0.774954 0.465762
vt 0.724794 0.647408
vt 0.692236 0.659198
vt 0.742051 0.709056
vt 0.735782 0.586970
vt 0.744304 0.647030
vt 0.761441 0.686120
vt 0.640964 0.478693
vt 0.631829 0.478390
vt 0.593910 0.432802
vt 0.619258 0.496158
vt 0.578890 0.450305
vt 0.676033 0.532583
vt 0.655388 0.534855
vt 0.637063 0.532604
vt 0.598088 0.418324
vt 0.533947 0.396613
vt 0.533850 0.388644
vt 0.478658 0.379038
vt 0.518255 0.418964
vt 0.487416 0.404433
vt 0.773884 0.762441
vt 0.782296 0.738509
vt 0.829951 0.758536
vt 0.788599 0.704769
vt 0.838722 0.721834
vt 0.727651 0.719017
vt 0.830859 0.780421
vt 0.900246 0.747885
vt 0.944744 0.716571
vt 0.959697 0.734240
vt 0.892725 0.709064
vt 0.926963 0.694302
vt 0.600846 0.691357
vt 0.595711 0.676498
vt 0.640984 0.639866
vt 0.570716 0.648564
vt 0.610036 0.614441
vt 0.540563 0.714127
vt 0.541240 0.693426
vt 0.537670 0.665055
vt 0.659789 0.584288
vt 0.678448 0.593449
vt 0.632288 0.570545
vt 0.990152 0.593435
vt 0.983263 0.676364
vt 0.968698 0.665233
vt 0.975594 0.596306
vt 0.943179 0.654934
vt 0.968767 0.520382
vt 0.986536 0.510934
vt 0.947489 0.467653
vt 0.947348 0.594476
vt 0.947573 0.526248
vt 0.934432 0.481622
vt 0.355356 0.585620
vt 0.365925 0.572183
vt 0.424283 0.636964
vt 0.388902 0.558727
vt 0.440317 0.614214
vt 0.328662 0.530202
vt 0.345483 0.528994
vt 0.365106 0.531750
vt 0.490278 0.676175
vt 0.478946 0.702708
vt 0.498735 0.650932
vt 0.853895 0.393817
vt 0.914791 0.408434
vt 0.904101 0.428113
vt 0.897797 0.464421
vt 0.853365 0.452005
vt 0.964842 0.451227
vt 0.851493 0.416995
vt 0.793278 0.430826
vt 0.791996 0.415030
vt 0.798608 0.453226
vt 0.358603 0.409402
vt 0.411847 0.367135
vt 0.415706 0.390239
vt 0.455485 0.415732
vt 0.399712 0.449371
vt 0.468686 0.362707
vt 0.376241 0.423015
vt 0.344710 0.470627
vt 0.395093 0.493533
vt 0.521338 0.534044
vt 0.444544 0.483085
vt 0.491376 0.442594
vt 0.548605 0.488793
vt 0.587952 0.534364
vt 0.566190 0.580315
vt 0.527679 0.621009
vt 0.463584 0.578958
vt 0.407114 0.522343
vt 0.851678 0.593018
vt 0.847587 0.499968
vt 0.900842 0.509403
vt 0.902220 0.597309
vt 0.895964 0.656544
vt 0.843293 0.658979
vt 0.789670 0.651336
vt 0.788440 0.600136
vt 0.784119 0.522049
vt 0.910042 0.781562
vt 0.658106 0.647934
vt 0.410369 0.648103
vt 0.325261 0.463777
vn -0.6837 0.3554 0.6374
vn -0.4954 0.2922 0.8180
vn -0.2814 0.7767 0.5636
vn -0.4031 0.8007 0.4432
vn 0.0526 0.9625 0.2660
vn -0.3206 -0.0882 0.9431
vn -0.2183 0.5696 0.7924
vn -0.1456 0.9785 0.1458
vn -0.6206 0.7302 0.2857
vn -0.8771 0.4002 0.2658
vn -0.7178 0.6934 -0.0632
vn -0.0683 0.9334 0.3522
vn -0.2833 0.9349 0.2140
vn -0.4189 0.9066 -0.0500
vn -0.9157 -0.1041 0.3881
vn -0.7801 -0.3341 0.5291
vn -0.6533 -0.7078 0.2687
vn -0.5183 -0.7853 0.3386
vn -0.9233 0.3821 -0.0403
vn -0.9824 -0.1869 -0.0033
vn -0.7540 -0.6440 0.1296
vn -0.5867 -0.3250 0.7417
vn -0.3323 -0.4601 0.8233
vn -0.4668 -0.7493 0.4698
vn -0.2578 -0.7433 0.6173
vn -0.8048 0.3123 -0.5047
vn -0.5083 0.7690 -0.3876
vn -0.2246 0.7668 -0.6013
vn -0.2260 0.9299 -0.2902
vn -0.0530 0.8945 -0.4439
vn -0.5586 0.2311 -0.7966
vn -0.0400 0.6659 -0.7450
vn 0.2559 0.3826 -0.8878
vn 0.2864 -0.0687 -0.9557
vn -0.0723 0.8190 -0.5692
vn 0.2442 0.6712 -0.6999
vn -0.1247 0.1818 -0.9754
vn -0.3354 -0.5011 -0.7978
vn -0.6373 -0.4733 -0.6082
vn -0.2664 -0.8928 -0.3632
vn -0.4895 -0.8186 -0.3005
vn 0.1980 -0.6063 -0.7702
vn 0.0630 -0.8658 -0.4964
vn -0.8607 -0.2950 -0.4148
vn -0.6148 -0.7665 -0.1859
vn 0.6975 -0.4967 -0.5165
vn 0.6420 -0.2742 -0.7160
vn 0.7217 0.1845 -0.6672
vn 0.8307 0.0850 -0.5502
vn 0.6066 0.6678 -0.4314
vn 0.8865 0.1320 -0.4434
vn 0.8077 -0.3964 -0.4365
vn 0.9872 0.1573 -0.0269
vn 0.6249 0.7096 -0.3256
vn 0.6300 0.7357 -0.2487
vn 0.7127 0.6972 -0.0776
vn 0.5867 -0.7249 -0.3609
vn 0.5117 -0.7642 -0.3925
vn 0.1891 -0.9585 -0.2135
vn 0.2003 -0.9665 -0.1602
vn 0.9207 -0.3902 0.0089
vn 0.6065 -0.7951 -0.0075
vn 0.2761 -0.9606 0.0305
vn 0.5100 -0.6872 -0.5174
vn 0.2776 -0.9397 -0.1999
vn 0.4855 -0.2027 0.8504
vn 0.8043 -0.2914 0.5179
vn 0.8022 0.4079 0.4360
vn 0.4728 0.8716 0.1294
vn 0.2879 0.9375 0.1954
vn 0.5489 0.4747 0.6881
vn 0.1578 0.4767 0.8648
vn 0.1176 -0.2847 0.9514
vn 0.0543 0.9778 0.2026
vn -0.0706 -0.6690 0.7399
vn -0.1303 -0.8660 0.4828
vn -0.0641 -0.9399 0.3353
vn 0.1910 -0.6833 0.7047
vn 0.4135 -0.8355 0.3620
vn 0.0383 -0.9863 0.1604
vn -0.1197 -0.9859 0.1169
vn -0.1523 -0.9809 0.1208
vn -0.2166 -0.9305 0.2953
vn -0.3372 -0.9219 0.1910
vn -0.3815 -0.9097 0.1643
vn -0.2833 -0.9586 0.0284
vn -0.0063 -0.9998 -0.0165
vn -0.0108 -0.9998 0.0169
vn -0.0641 -0.9979 -0.0029
vn 0.2246 0.9608 0.1626
vn 0.0787 0.9959 0.0442
vn 0.2626 0.9648 -0.0112
vn 0.3629 0.9315 -0.0249
vn 0.2763 0.9369 -0.2142
vn 0.0770 0.9897 -0.1209
vn -0.0240 0.9989 0.0395
vn 0.1488 0.9529 0.2643
vn 0.1254 0.9852 0.1166
s 1
f 1/1/1 5/2/2 6/3/3
f 2/4/4 6/3/3 58/5/5
f 56/6/6 57/7/7 6/3/3
f 6/3/3 57/7/7 95/8/8
f 2/4/4 7/9/9 3/10/10
f 3/10/10 7/9/9 61/11/11
f 59/12/12 60/13/13 7/9/9
f 7/9/9 60/13/13 96/14/14
f 3/15/10 8/16/15 4/17/16
f 8/16/15 64/18/17 65/19/18
f 3/15/10 62/20/19 63/21/20
f 63/21/20 92/22/21 64/18/17
f 1/23/1 4/17/16 9/24/22
f 5/25/2 9/24/22 55/26/23
f 65/19/18 66/27/24 9/24/22
f 9/24/22 66/27/24 91/28/25
f 14/29/26 15/30/27 11/31/28
f 15/30/27 67/32/29 68/33/30
f 62/34/19 61/11/11 15/30/27
f 61/11/11 96/14/14 67/32/29
f 10/35/31 11/31/28 16/36/32
f 16/36/32 70/37/33 71/38/34
f 68/33/30 69/39/35 16/36/32
f 69/39/35 97/40/36 70/37/33
f 12/41/37 17/42/38 13/43/39
f 17/42/38 73/44/40 74/45/41
f 12/41/37 71/46/34 72/47/42
f 72/47/42 93/48/43 73/44/40
f 13/43/39 18/49/44 14/50/26
f 18/49/44 63/21/20 62/20/19
f 74/45/41 75/51/45 18/49/44
f 75/51/45 92/22/21 63/21/20
f 19/52/46 23/53/47 24/54/48
f 20/55/49 24/54/48 76/56/50
f 23/53/47 71/38/34 70/37/33
f 24/54/48 70/37/33 97/40/36
f 19/52/46 20/55/49 25/57/51
f 21/58/52 25/57/51 79/59/53
f 20/55/49 77/60/54 78/61/55
f 25/57/51 78/61/55 98/62/56
f 21/63/52 26/64/57 22/65/58
f 26/64/57 82/66/59 83/67/60
f 80/68/61 81/69/62 26/64/57
f 26/64/57 81/69/62 94/70/63
f 22/65/58 27/71/64 23/72/47
f 23/72/47 27/71/64 72/47/42
f 22/65/58 83/67/60 84/73/65
f 27/71/64 84/73/65 93/48/43
f 28/74/66 32/75/67 33/76/68
f 33/76/68 85/77/69 86/78/70
f 80/79/61 79/59/53 33/76/68
f 79/59/53 98/62/56 85/77/69
f 29/80/71 34/81/72 30/82/73
f 30/82/73 34/81/72 57/7/7
f 29/80/71 86/78/70 87/83/74
f 87/83/74 95/8/8 57/7/7
f 28/84/66 30/85/73 35/86/75
f 35/86/75 88/87/76 89/88/77
f 56/89/6 55/26/23 35/86/75
f 55/26/23 91/28/25 88/87/76
f 28/84/66 31/90/78 36/91/79
f 36/91/79 81/69/62 80/68/61
f 89/88/77 90/92/80 36/91/79
f 90/92/80 94/70/63 81/69/62
f 37/93/81 41/94/82 42/95/83
f 38/96/84 42/95/83 66/27/24
f 41/94/82 89/88/77 88/87/76
f 42/95/83 88/87/76 91/28/25
f 37/93/81 38/96/84 43/97/85
f 39/98/86 43/97/85 75/51/45
f 38/96/84 65/19/18 64/18/17
f 43/97/85 64/18/17 92/22/21
f 37/93/81 39/98/86 44/99/87
f 40/100/88 44/99/87 84/73/65
f 39/98/86 74/45/41 73/44/40
f 44/99/87 73/44/40 93/48/43
f 40/100/88 45/101/89 41/94/82
f 41/94/82 45/101/89 90/92/80
f 40/100/88 83/67/60 82/66/59
f 45/101/89 82/66/59 94/70/63
f 46/102/90 50/103/91 51/104/92
f 47/105/93 51/104/92 78/61/55
f 50/103/91 86/78/70 85/77/69
f 51/104/92 85/77/69 98/62/56
f 46/102/90 47/105/93 52/106/94
f 48/107/95 52/106/94 69/39/35
f 47/105/93 77/60/54 76/56/50
f 52/106/94 76/56/50 97/40/36
f 48/107/95 53/108/96 49/109/97
f 49/109/97 53/108/96 60/13/13
f 48/107/95 68/33/30 67/32/29
f 53/108/96 67/32/29 96/14/14
f 46/102/90 49/109/97 54/110/98
f 50/103/91 54/110/98 87/83/74
f 59/12/12 58/5/5 54/110/98
f 54/110/98 58/5/5 95/8/8
f 2/4/4 1/1/1 6/3/3
f 59/12/12 2/4/4 58/5/5
f 5/2/2 56/6/6 6/3/3
f 58/5/5 6/3/3 95/8/8
f 1/1/1 2/4/4 3/10/10
f 62/34/19 3/10/10 61/11/11
f 2/4/4 59/12/12 7/9/9
f 61/11/11 7/9/9 96/14/14
f 1/23/1 3/15/10 4/17/16
f 4/17/16 8/16/15 65/19/18
f 8/16/15 3/15/10 63/21/20
f 8/16/15 63/21/20 64/18/17
f 5/25/2 1/23/1 9/24/22
f 56/89/6 5/25/2 55/26/23
f 4/17/16 65/19/18 9/24/22
f 55/26/23 9/24/22 91/28/25
f 10/35/31 14/29/26 11/31/28
f 11/31/28 15/30/27 68/33/30
f 14/29/26 62/34/19 15/30/27
f 15/30/27 61/11/11 67/32/29
f 12/111/37 10/35/31 16/36/32
f 12/111/37 16/36/32 71/38/34
f 11/31/28 68/33/30 16/36/32
f 16/36/32 69/39/35 70/37/33
f 10/112/31 12/41/37 13/43/39
f 13/43/39 17/42/38 74/45/41
f 17/42/38 12/41/37 72/47/42
f 17/42/38 72/47/42 73/44/40
f 10/112/31 13/43/39 14/50/26
f 14/50/26 18/49/44 62/20/19
f 13/43/39 74/45/41 18/49/44
f 18/49/44 75/51/45 63/21/20
f 20/55/49 19/52/46 24/54/48
f 77/60/54 20/55/49 76/56/50
f 24/54/48 23/53/47 70/37/33
f 76/56/50 24/54/48 97/40/36
f 21/58/52 19/52/46 25/57/51
f 80/79/61 21/58/52 79/59/53
f 25/57/51 20/55/49 78/61/55
f 79/59/53 25/57/51 98/62/56
f 19/113/46 21/63/52 22/65/58
f 22/65/58 26/64/57 83/67/60
f 21/63/52 80/68/61 26/64/57
f 82/66/59 26/64/57 94/70/63
f 19/113/46 22/65/58 23/72/47
f 71/46/34 23/72/47 72/47/42
f 27/71/64 22/65/58 84/73/65
f 72/47/42 27/71/64 93/48/43
f 29/80/71 28/74/66 33/76/68
f 29/80/71 33/76/68 86/78/70
f 32/75/67 80/79/61 33/76/68
f 33/76/68 79/59/53 85/77/69
f 28/74/66 29/80/71 30/82/73
f 56/6/6 30/82/73 57/7/7
f 34/81/72 29/80/71 87/83/74
f 34/81/72 87/83/74 57/7/7
f 31/90/78 28/84/66 35/86/75
f 31/90/78 35/86/75 89/88/77
f 30/85/73 56/89/6 35/86/75
f 35/86/75 55/26/23 88/87/76
f 32/114/67 28/84/66 36/91/79
f 32/114/67 36/91/79 80/68/61
f 31/90/78 89/88/77 36/91/79
f 36/91/79 90/92/80 81/69/62
f 38/96/84 37/93/81 42/95/83
f 65/19/18 38/96/84 66/27/24
f 42/95/83 41/94/82 88/87/76
f 66/27/24 42/95/83 91/28/25
f 39/98/86 37/93/81 43/97/85
f 74/45/41 39/98/86 75/51/45
f 43/97/85 38/96/84 64/18/17
f 75/51/45 43/97/85 92/22/21
f 40/100/88 37/93/81 44/99/87
f 83/67/60 40/100/88 84/73/65
f 44/99/87 39/98/86 73/44/40
f 84/73/65 44/99/87 93/48/43
f 37/93/81 40/100/88 41/94/82
f 89/88/77 41/94/82 90/92/80
f 45/101/89 40/100/88 82/66/59
f 90/92/80 45/101/89 94/70/63
f 47/105/93 46/102/90 51/104/92
f 77/60/54 47/105/93 78/61/55
f 51/104/92 50/103/91 85/77/69
f 78/61/55 51/104/92 98/62/56
f 48/107/95 46/102/90 52/106/94
f 68/33/30 48/107/95 69/39/35
f 52/106/94 47/105/93 76/56/50
f 69/39/35 52/106/94 97/40/36
f 46/102/90 48/107/95 49/109/97
f 59/12/12 49/109/97 60/13/13
f 53/108/96 48/107/95 67/32/29
f 60/13/13 53/108/96 96/14/14
f 50/103/91 46/102/90 54/110/98
f 86/78/70 50/103/91 87/83/74
f 49/109/97 59/12/12 54/110/98
f 87/83/74 54/110/98 95/8/8
