# Blender v2.79 (sub 0) OBJ File: 'stone3.blend'
# www.blender.org
o Stone_2_Stone.001
v -0.382820 0.034723 0.008693
v -0.375687 0.179079 -0.090402
v -0.359870 -0.129163 -0.163114
v -0.390578 -0.161601 0.005569
v -0.376049 0.046621 0.130406
v -0.339541 0.209069 0.076056
v -0.346364 0.138473 -0.202494
v -0.360733 -0.199709 -0.124419
v -0.374018 -0.107232 0.190230
v -0.002257 -0.135532 -0.461208
v -0.007874 0.059161 -0.499020
v 0.168777 -0.116383 -0.441808
v -0.003191 -0.282912 -0.363828
v -0.155747 -0.130540 -0.390190
v -0.190137 0.041743 -0.420893
v 0.187251 0.067021 -0.508761
v 0.149536 -0.284686 -0.346139
v -0.107418 -0.233168 -0.349390
v 0.303802 0.030671 -0.023222
v 0.332472 0.204135 -0.106989
v 0.275922 0.052940 0.112197
v 0.326683 -0.197990 0.017388
v 0.304559 -0.025739 -0.215423
v 0.352101 0.158015 -0.257111
v 0.287522 0.224820 0.081262
v 0.276986 -0.130551 0.133990
v 0.320365 -0.222367 -0.125887
v -0.012091 0.166782 0.450789
v -0.011029 0.337808 0.354062
v -0.149546 0.167265 0.408211
v -0.015518 -0.056010 0.473864
v 0.137571 0.151809 0.374667
v 0.154314 0.313254 0.307166
v -0.160869 0.310598 0.319235
v -0.176727 -0.069438 0.425879
v 0.146719 -0.060485 0.426103
v -0.015393 -0.403928 0.153117
v -0.171620 -0.353921 0.175600
v -0.003113 -0.390660 -0.036082
v 0.162326 -0.365904 0.115270
v -0.015023 -0.393465 0.338493
v -0.194930 -0.331351 0.317061
v -0.138357 -0.342819 -0.061618
v 0.149904 -0.366543 -0.047995
v 0.183914 -0.310797 0.275151
v 0.007478 0.407679 -0.097012
v 0.172558 0.371063 -0.145070
v 0.008067 0.307732 -0.269195
v -0.149723 0.358047 -0.073943
v 0.002774 0.454392 0.053557
v 0.148114 0.417862 0.055571
v 0.189883 0.322946 -0.285213
v -0.172554 0.249067 -0.258458
v -0.156936 0.400323 0.062647
v -0.298616 -0.084207 0.310520
v -0.303766 0.045958 0.220545
v -0.276318 0.241721 0.172626
v -0.274919 0.307883 0.037968
v -0.308335 0.260220 -0.111164
v -0.286355 0.204663 -0.225774
v -0.265200 0.066954 -0.321598
v -0.315065 -0.151152 -0.226443
v -0.289214 -0.255744 -0.217550
v -0.307768 -0.259170 -0.094990
v -0.332006 -0.220856 0.106999
v -0.309024 -0.211889 0.243318
v -0.170214 0.162503 -0.362638
v 0.006511 0.185518 -0.425819
v 0.182127 0.219861 -0.444708
v 0.314169 0.095427 -0.391135
v 0.277503 -0.089707 -0.332751
v 0.262392 -0.253386 -0.266729
v 0.136921 -0.364147 -0.219016
v 0.003990 -0.369192 -0.220297
v -0.184032 -0.326404 -0.184488
v 0.320149 0.273674 -0.286782
v 0.305369 0.315794 -0.134323
v 0.247910 0.347965 0.044881
v 0.238705 0.270204 0.202047
v 0.229624 0.104413 0.249918
v 0.214191 -0.059580 0.288527
v 0.275339 -0.259223 0.223969
v 0.315407 -0.330563 0.084277
v 0.308388 -0.335575 -0.038050
v 0.149833 0.411595 0.204357
v 0.014991 0.442080 0.221213
v -0.156509 0.389098 0.188348
v -0.189602 -0.215669 0.418359
v -0.008888 -0.243480 0.491239
v 0.183170 -0.218029 0.427313
v -0.275991 -0.175006 0.332303
v -0.272931 -0.285134 -0.192693
v 0.253494 -0.305539 -0.201168
v 0.235233 -0.198075 0.364155
v -0.227860 0.347459 0.148491
v -0.244216 0.155185 -0.315091
v 0.293759 0.210910 -0.391745
v 0.224098 0.353029 0.150919
vt 0.125472 0.858163
vt 0.105638 0.869754
vt 0.093675 0.841514
vt 0.081561 0.822767
vt 0.107692 0.807391
vt 0.088260 0.879655
vt 0.073732 0.848072
vt 0.061513 0.831900
vt 0.150023 0.668147
vt 0.144678 0.701225
vt 0.122713 0.701982
vt 0.108256 0.659391
vt 0.095658 0.701715
vt 0.142930 0.721901
vt 0.119719 0.717436
vt 0.101212 0.716025
vt 0.106446 0.646300
vt 0.128928 0.636482
vt 0.099942 0.633877
vt 0.095403 0.662441
vt 0.086515 0.648278
vt 0.085332 0.641929
vt 0.145942 0.890554
vt 0.111514 0.897440
vt 0.089305 0.906131
vt 0.133278 0.912710
vt 0.109021 0.920067
vt 0.091910 0.921521
vt 0.032596 0.689773
vt 0.062559 0.680381
vt 0.075454 0.706801
vt 0.046512 0.726262
vt 0.088954 0.724881
vt 0.141841 0.833778
vt 0.175217 0.829676
vt 0.180710 0.858550
vt 0.198267 0.822803
vt 0.205755 0.852078
vt 0.145324 0.803211
vt 0.177665 0.806380
vt 0.194953 0.807123
vt 0.152213 0.871794
vt 0.192898 0.888215
vt 0.208963 0.907710
vt 0.192221 0.926464
vt 0.214659 0.879611
vt 0.223116 0.890806
vt 0.031850 0.655105
vt 0.052524 0.661837
vt 0.038589 0.623209
vt 0.072731 0.632987
vt 0.226885 0.841357
vt 0.216794 0.810549
vt 0.242601 0.794374
vt 0.207060 0.794635
vt 0.334742 0.712006
vt 0.331308 0.749231
vt 0.300015 0.732443
vt 0.277279 0.727512
vt 0.283244 0.699165
vt 0.321562 0.769246
vt 0.290459 0.753927
vt 0.275694 0.743284
vt 0.310133 0.703183
vt 0.321799 0.671612
vt 0.316902 0.643456
vt 0.347221 0.641495
vt 0.289557 0.670596
vt 0.290243 0.644616
vt 0.263538 0.829493
vt 0.268324 0.876667
vt 0.240846 0.876778
vt 0.273176 0.906201
vt 0.251662 0.899024
vt 0.255157 0.695001
vt 0.254683 0.724292
vt 0.224693 0.724882
vt 0.259109 0.746159
vt 0.236323 0.755232
vt 0.013268 0.854412
vt 0.041480 0.855006
vt 0.042572 0.882937
vt 0.014452 0.821412
vt 0.046050 0.830191
vt 0.063562 0.917416
vt 0.035558 0.930894
vt 0.078081 0.937279
vt 0.237336 0.648485
vt 0.265723 0.658624
vt 0.252003 0.616320
vt 0.279966 0.636903
vt 0.090807 0.981191
vt 0.100207 0.948364
vt 0.125605 0.954140
vt 0.054443 0.962234
vt 0.077396 0.562546
vt 0.105917 0.576364
vt 0.076766 0.610154
vt 0.129501 0.611021
vt 0.221070 0.949483
vt 0.235438 0.923203
vt 0.264458 0.937118
vt 0.319832 0.579777
vt 0.335420 0.612756
vt 0.306131 0.625107
vt 0.284255 0.589019
vt 0.272707 0.803800
vt 0.251770 0.782637
vt 0.272916 0.766273
vt 0.302823 0.789224
vt 0.203555 0.753369
vt 0.190762 0.779275
vt 0.158526 0.762999
vt 0.227056 0.773614
vt 0.095484 0.769422
vt 0.109459 0.737178
vt 0.143023 0.758294
vt 0.064013 0.747854
vt 0.074118 0.790521
vt 0.057096 0.811288
vt 0.031430 0.793246
vt 0.120797 0.823902
vt 0.169205 0.902142
vt 0.348642 0.669893
vt 0.225800 0.688532
vt 0.018442 0.891803
vt 0.126183 0.985933
vt 0.056488 0.592154
vt 0.251732 0.971981
vt 0.178483 0.725430
vt 0.129217 0.786857
vt 0.050092 0.769048
vn -0.9969 0.0764 -0.0188
vn -0.9210 0.2101 0.3279
vn -0.8746 0.4159 0.2490
vn -0.7177 0.6963 -0.0008
vn -0.6456 0.7188 -0.2580
vn -0.7864 0.2658 0.5576
vn -0.8308 0.3717 0.4142
vn -0.7190 0.6613 0.2138
vn -0.9387 0.3208 -0.1261
vn -0.8726 0.2220 -0.4351
vn -0.9215 -0.0916 -0.3773
vn -0.7586 0.0646 -0.6483
vn -0.5975 0.6186 -0.5101
vn -0.5849 0.4290 -0.6884
vn -0.8811 -0.4200 -0.2174
vn -0.9513 -0.3083 0.0045
vn -0.6173 -0.7866 0.0166
vn -0.7785 -0.1757 -0.6026
vn -0.6593 -0.5431 -0.5200
vn -0.5277 -0.7964 -0.2954
vn -0.9333 -0.0988 0.3453
vn -0.7848 0.1396 0.6038
vn -0.7424 -0.6603 0.1134
vn -0.8194 -0.4809 0.3120
vn -0.7982 -0.2018 0.5676
vn -0.1250 -0.3701 -0.9205
vn -0.5340 -0.3332 -0.7771
vn -0.6184 0.0696 -0.7828
vn -0.2035 0.1420 -0.9687
vn -0.4407 0.5660 -0.6967
vn 0.3195 0.0144 -0.9475
vn 0.4203 -0.3891 -0.8197
vn 0.8471 -0.0727 -0.5265
vn 0.8643 -0.2852 -0.4142
vn -0.2447 0.6226 -0.7433
vn 0.1400 0.5968 -0.7900
vn 0.6340 0.4080 -0.6569
vn 0.3410 -0.6646 -0.6649
vn 0.2472 -0.9279 -0.2789
vn -0.1188 -0.9395 -0.3211
vn 0.7547 -0.4458 -0.4813
vn 0.6168 -0.7136 -0.3320
vn -0.1716 -0.7182 -0.6743
vn -0.3895 -0.6185 -0.6824
vn -0.3510 -0.8978 -0.2658
vn 0.9890 -0.1286 -0.0724
vn 0.9978 -0.0005 -0.0659
vn 0.9843 0.0945 0.1489
vn 0.7299 0.6131 -0.3021
vn 0.9914 -0.0052 0.1307
vn 0.9557 0.1570 0.2492
vn 0.8677 0.2468 0.4314
vn 0.8876 0.0513 0.4577
vn 0.7548 0.6559 -0.0048
vn 0.7625 0.6411 0.0877
vn 0.7823 0.5650 0.2623
vn 0.9631 0.0037 0.2690
vn 0.9481 0.1170 0.2957
vn 0.8704 -0.3359 0.3598
vn 0.7699 -0.5926 0.2366
vn 0.9124 0.1601 0.3767
vn 0.8865 -0.1113 0.4492
vn 0.9911 0.0413 0.1264
vn 0.9683 -0.1455 -0.2031
vn 0.7099 -0.6911 -0.1354
vn 0.6258 0.2159 0.7495
vn 0.5689 0.4484 0.6894
vn 0.0073 0.6464 0.7629
vn 0.4826 0.8027 0.3504
vn -0.0154 0.9279 0.3725
vn -0.5480 0.5715 0.6109
vn -0.5469 0.2761 0.7904
vn -0.4505 0.8449 0.2885
vn -0.5299 0.0876 0.8435
vn -0.0001 0.1084 0.9941
vn -0.5437 -0.2892 0.7879
vn 0.5881 0.2026 0.7830
vn -0.0249 -0.3478 0.9372
vn 0.5852 -0.3094 0.7496
vn 0.0268 -0.9148 0.4029
vn -0.5576 -0.7383 0.3795
vn -0.4933 -0.8698 -0.0062
vn -0.0195 -0.9996 0.0196
vn -0.3830 -0.9228 -0.0428
vn -0.0755 -0.9933 -0.0876
vn 0.1941 -0.9787 -0.0673
vn 0.2689 -0.9494 0.1622
vn 0.5107 -0.7946 0.3284
vn -0.0962 0.9220 -0.3750
vn -0.0494 0.9922 -0.1140
vn 0.3977 0.9151 -0.0668
vn 0.2352 0.9368 -0.2590
vn 0.1261 0.8999 -0.4175
vn -0.1996 0.8328 -0.5164
vn -0.3596 0.7664 -0.5322
vn -0.3981 0.8503 -0.3443
vn -0.4500 0.8869 -0.1046
vn 0.0914 0.2934 0.9516
s 1
f 1/1/1 5/2/2 6/3/3
f 6/3/3 58/4/4 59/5/5
f 56/6/6 57/7/7 6/3/3
f 57/7/7 95/8/8 58/4/4
f 1/9/1 2/10/9 7/11/10
f 3/12/11 7/11/10 61/13/12
f 59/14/5 60/15/13 7/11/10
f 7/11/10 60/15/13 96/16/14
f 3/12/11 8/17/15 4/18/16
f 4/18/16 8/17/15 64/19/17
f 62/20/18 63/21/19 8/17/15
f 63/21/19 92/22/20 64/19/17
f 1/1/1 4/23/16 9/24/21
f 9/24/21 55/25/22 56/6/6
f 65/26/23 66/27/24 9/24/21
f 66/27/24 91/28/25 55/25/22
f 10/29/26 14/30/27 15/31/28
f 11/32/29 15/31/28 67/33/30
f 14/30/27 62/20/18 61/13/12
f 61/13/12 96/16/14 67/33/30
f 11/34/29 16/35/31 12/36/32
f 16/35/31 70/37/33 71/38/34
f 68/39/35 69/40/36 16/35/31
f 69/40/36 97/41/37 70/37/33
f 10/42/26 12/36/32 17/43/38
f 17/43/38 73/44/39 74/45/40
f 71/38/34 72/46/41 17/43/38
f 72/46/41 93/47/42 73/44/39
f 10/29/26 13/48/43 18/49/44
f 14/30/27 18/49/44 63/21/19
f 74/50/40 75/51/45 18/49/44
f 75/51/45 92/22/20 63/21/19
f 23/52/46 24/53/47 20/54/48
f 20/54/48 24/53/47 76/55/49
f 23/52/46 71/38/34 70/37/33
f 24/53/47 70/37/33 97/41/37
f 19/56/50 20/57/48 25/58/51
f 25/58/51 79/59/52 80/60/53
f 20/57/48 77/61/54 78/62/55
f 25/58/51 78/62/55 98/63/56
f 19/56/50 21/64/57 26/65/58
f 26/65/58 82/66/59 83/67/60
f 21/64/57 80/60/53 81/68/61
f 81/68/61 94/69/62 82/66/59
f 19/70/50 22/71/63 27/72/64
f 23/52/46 27/72/64 72/46/41
f 22/71/63 83/73/60 84/74/65
f 27/72/64 84/74/65 93/47/42
f 32/75/66 33/76/67 29/77/68
f 33/76/67 85/78/69 86/79/70
f 80/60/53 79/59/52 33/76/67
f 79/59/52 98/63/56 85/78/69
f 29/80/68 34/81/71 30/82/72
f 30/82/72 34/81/71 57/7/7
f 29/80/68 86/83/70 87/84/73
f 34/81/71 87/84/73 95/8/8
f 30/82/72 35/85/74 31/86/75
f 31/86/75 35/85/74 88/87/76
f 56/6/6 55/25/22 35/85/74
f 35/85/74 55/25/22 91/28/25
f 31/88/75 36/89/77 32/75/66
f 32/75/66 36/89/77 81/68/61
f 89/90/78 90/91/79 36/89/77
f 36/89/77 90/91/79 94/69/62
f 41/92/80 42/93/81 38/94/82
f 38/94/82 42/93/81 66/27/24
f 41/92/80 89/95/78 88/87/76
f 42/93/81 88/87/76 91/28/25
f 37/96/83 38/97/82 43/98/84
f 43/98/84 75/51/45 74/50/40
f 65/99/23 64/19/17 43/98/84
f 64/19/17 92/22/20 75/51/45
f 39/100/85 44/101/86 40/102/87
f 40/102/87 44/101/86 84/74/65
f 74/45/40 73/44/39 44/101/86
f 44/101/86 73/44/39 93/47/42
f 37/103/83 40/104/87 45/105/88
f 41/106/80 45/105/88 90/91/79
f 40/104/87 83/67/60 82/66/59
f 45/105/88 82/66/59 94/69/62
f 46/107/89 50/108/90 51/109/91
f 47/110/92 51/109/91 78/62/55
f 86/79/70 85/78/69 51/109/91
f 51/109/91 85/78/69 98/63/56
f 47/111/92 52/112/93 48/113/94
f 48/113/94 52/112/93 69/40/36
f 77/114/54 76/55/49 52/112/93
f 52/112/93 76/55/49 97/41/37
f 48/115/94 53/116/95 49/117/96
f 53/116/95 60/15/13 59/14/5
f 48/115/94 68/118/35 67/33/30
f 53/116/95 67/33/30 96/16/14
f 49/119/96 54/120/97 50/121/90
f 50/121/90 54/120/97 87/84/73
f 49/119/96 59/5/5 58/4/4
f 54/120/97 58/4/4 95/8/8
f 2/122/9 1/1/1 6/3/3
f 2/122/9 6/3/3 59/5/5
f 5/2/2 56/6/6 6/3/3
f 6/3/3 57/7/7 58/4/4
f 3/12/11 1/9/1 7/11/10
f 62/20/18 3/12/11 61/13/12
f 2/10/9 59/14/5 7/11/10
f 61/13/12 7/11/10 96/16/14
f 1/9/1 3/12/11 4/18/16
f 65/99/23 4/18/16 64/19/17
f 3/12/11 62/20/18 8/17/15
f 8/17/15 63/21/19 64/19/17
f 5/2/2 1/1/1 9/24/21
f 5/2/2 9/24/21 56/6/6
f 4/23/16 65/26/23 9/24/21
f 9/24/21 66/27/24 55/25/22
f 11/32/29 10/29/26 15/31/28
f 68/118/35 11/32/29 67/33/30
f 15/31/28 14/30/27 61/13/12
f 15/31/28 61/13/12 67/33/30
f 10/42/26 11/34/29 12/36/32
f 12/36/32 16/35/31 71/38/34
f 11/34/29 68/39/35 16/35/31
f 16/35/31 69/40/36 70/37/33
f 13/123/43 10/42/26 17/43/38
f 13/123/43 17/43/38 74/45/40
f 12/36/32 71/38/34 17/43/38
f 17/43/38 72/46/41 73/44/39
f 14/30/27 10/29/26 18/49/44
f 62/20/18 14/30/27 63/21/19
f 13/48/43 74/50/40 18/49/44
f 18/49/44 75/51/45 63/21/19
f 19/70/50 23/52/46 20/54/48
f 77/114/54 20/54/48 76/55/49
f 24/53/47 23/52/46 70/37/33
f 76/55/49 24/53/47 97/41/37
f 21/64/57 19/56/50 25/58/51
f 21/64/57 25/58/51 80/60/53
f 25/58/51 20/57/48 78/62/55
f 79/59/52 25/58/51 98/63/56
f 22/124/63 19/56/50 26/65/58
f 22/124/63 26/65/58 83/67/60
f 26/65/58 21/64/57 81/68/61
f 26/65/58 81/68/61 82/66/59
f 23/52/46 19/70/50 27/72/64
f 71/38/34 23/52/46 72/46/41
f 27/72/64 22/71/63 84/74/65
f 72/46/41 27/72/64 93/47/42
f 28/125/98 32/75/66 29/77/68
f 29/77/68 33/76/67 86/79/70
f 32/75/66 80/60/53 33/76/67
f 33/76/67 79/59/52 85/78/69
f 28/126/98 29/80/68 30/82/72
f 56/6/6 30/82/72 57/7/7
f 34/81/71 29/80/68 87/84/73
f 57/7/7 34/81/71 95/8/8
f 28/126/98 30/82/72 31/86/75
f 89/95/78 31/86/75 88/87/76
f 30/82/72 56/6/6 35/85/74
f 88/87/76 35/85/74 91/28/25
f 28/125/98 31/88/75 32/75/66
f 80/60/53 32/75/66 81/68/61
f 31/88/75 89/90/78 36/89/77
f 81/68/61 36/89/77 94/69/62
f 37/127/83 41/92/80 38/94/82
f 65/26/23 38/94/82 66/27/24
f 42/93/81 41/92/80 88/87/76
f 66/27/24 42/93/81 91/28/25
f 39/128/85 37/96/83 43/98/84
f 39/128/85 43/98/84 74/50/40
f 38/97/82 65/99/23 43/98/84
f 43/98/84 64/19/17 75/51/45
f 37/129/83 39/100/85 40/102/87
f 83/73/60 40/102/87 84/74/65
f 39/100/85 74/45/40 44/101/86
f 84/74/65 44/101/86 93/47/42
f 41/106/80 37/103/83 45/105/88
f 89/90/78 41/106/80 90/91/79
f 45/105/88 40/104/87 82/66/59
f 90/91/79 45/105/88 94/69/62
f 47/110/92 46/107/89 51/109/91
f 77/61/54 47/110/92 78/62/55
f 50/108/90 86/79/70 51/109/91
f 78/62/55 51/109/91 98/63/56
f 46/130/89 47/111/92 48/113/94
f 68/39/35 48/113/94 69/40/36
f 47/111/92 77/114/54 52/112/93
f 69/40/36 52/112/93 97/41/37
f 46/131/89 48/115/94 49/117/96
f 49/117/96 53/116/95 59/14/5
f 53/116/95 48/115/94 67/33/30
f 60/15/13 53/116/95 96/16/14
f 46/132/89 49/119/96 50/121/90
f 86/83/70 50/121/90 87/84/73
f 54/120/97 49/119/96 58/4/4
f 87/84/73 54/120/97 95/8/8
